<svg width="24" height="24" viewBox="0 0 24 24" fill="none" xmlns="http://www.w3.org/2000/svg">
<g clip-path="url(#clip0_6015_1224)">
<path d="M12.0006 -0.000162125C8.7416 -0.000162125 8.3326 0.0140883 7.05259 0.0723389C5.77507 0.13084 4.90306 0.333092 4.14005 0.629845C3.3508 0.936348 2.68129 1.34635 2.01428 2.01361C1.34678 2.68062 0.936771 3.35012 0.629268 4.13913C0.331765 4.90239 0.129263 5.77465 0.0717624 7.05166C0.0145118 8.33168 -0.000488281 8.74093 -0.000488281 12C-0.000488281 15.259 0.0140121 15.6668 0.0720127 16.9468C0.130763 18.2243 0.333015 19.0963 0.629518 19.8593C0.936272 20.6486 1.34628 21.3181 2.01353 21.9851C2.68029 22.6526 3.3498 23.0636 4.13855 23.3701C4.90206 23.6668 5.77432 23.8691 7.05158 23.9276C8.3316 23.9858 8.74035 24.0001 11.9991 24.0001C15.2584 24.0001 15.6662 23.9858 16.9462 23.9276C18.2237 23.8691 19.0967 23.6668 19.8602 23.3701C20.6492 23.0636 21.3177 22.6526 21.9845 21.9851C22.652 21.3181 23.062 20.6486 23.3695 19.8596C23.6645 19.0963 23.867 18.224 23.927 16.947C23.9845 15.667 23.9995 15.259 23.9995 12C23.9995 8.74093 23.9845 8.33193 23.927 7.05191C23.867 5.7744 23.6645 4.90239 23.3695 4.13938C23.062 3.35012 22.652 2.68062 21.9845 2.01361C21.317 1.3461 20.6495 0.936098 19.8595 0.629845C19.0945 0.333092 18.222 0.13084 16.9444 0.0723389C15.6644 0.0140883 15.2569 -0.000162125 11.9969 -0.000162125H12.0006ZM10.9241 2.16236C11.2436 2.16186 11.6001 2.16236 12.0006 2.16236C15.2047 2.16236 15.5844 2.17386 16.8497 2.23136C18.0197 2.28486 18.6547 2.48036 19.0777 2.64462C19.6377 2.86212 20.037 3.12212 20.4567 3.54213C20.8767 3.96213 21.1367 4.36213 21.3547 4.92214C21.519 5.34465 21.7147 5.97965 21.768 7.14967C21.8255 8.41468 21.838 8.79468 21.838 11.9972C21.838 15.1998 21.8255 15.5798 21.768 16.8448C21.7145 18.0148 21.519 18.6498 21.3547 19.0723C21.1372 19.6323 20.8767 20.0311 20.4567 20.4508C20.0367 20.8708 19.638 21.1308 19.0777 21.3483C18.6552 21.5133 18.0197 21.7083 16.8497 21.7618C15.5847 21.8193 15.2047 21.8318 12.0006 21.8318C8.79635 21.8318 8.4166 21.8193 7.15159 21.7618C5.98157 21.7078 5.34657 21.5123 4.92331 21.3481C4.36331 21.1306 3.9633 20.8706 3.5433 20.4506C3.12329 20.0306 2.86329 19.6316 2.64529 19.0713C2.48104 18.6488 2.28529 18.0138 2.23203 16.8438C2.17453 15.5788 2.16303 15.1988 2.16303 11.9942C2.16303 8.78968 2.17453 8.41168 2.23203 7.14667C2.28554 5.97665 2.48104 5.34165 2.64529 4.91864C2.86279 4.35863 3.12329 3.95863 3.5433 3.53863C3.9633 3.11862 4.36331 2.85862 4.92331 2.64062C5.34632 2.47561 5.98157 2.28061 7.15159 2.22686C8.2586 2.17686 8.6876 2.16186 10.9241 2.15936V2.16236ZM18.4062 4.15488C17.6112 4.15488 16.9662 4.79914 16.9662 5.5944C16.9662 6.38941 17.6112 7.03441 18.4062 7.03441C19.2012 7.03441 19.8462 6.38941 19.8462 5.5944C19.8462 4.79939 19.2012 4.15438 18.4062 4.15438V4.15488ZM12.0006 5.8374C8.59735 5.8374 5.83807 8.59668 5.83807 12C5.83807 15.4033 8.59735 18.1613 12.0006 18.1613C15.4039 18.1613 18.1622 15.4033 18.1622 12C18.1622 8.59668 15.4039 5.8374 12.0006 5.8374ZM12.0006 7.99992C14.2097 7.99992 16.0007 9.79069 16.0007 12C16.0007 14.209 14.2097 16 12.0006 16C9.79136 16 8.0006 14.209 8.0006 12C8.0006 9.79069 9.79136 7.99992 12.0006 7.99992Z" fill="#3366FF"/>
</g>
<defs>
<clipPath id="clip0_6015_1224">
<rect width="24.0007" height="24" fill="white" transform="translate(-0.000366211)"/>
</clipPath>
</defs>
</svg>
